<?xml version="1.0" standalone="no"?>
<!DOCTYPE svg PUBLIC "-//W3C//DTD SVG 20010904//EN"
 "http://www.w3.org/TR/2001/REC-SVG-20010904/DTD/svg10.dtd">
<svg version="1.0" xmlns="http://www.w3.org/2000/svg"
 width="568.000000pt" height="824.000000pt" viewBox="0 0 568.000000 824.000000"
 preserveAspectRatio="xMidYMid meet">

<g transform="translate(0.000000,824.000000) scale(0.100000,-0.100000)"
fill="#000000" stroke="none">
<path d="M1493 7743 l-173 -3 0 -275 0 -274 -57 -17 c-117 -33 -402 -116 -536
-156 -110 -33 -137 -45 -134 -57 3 -9 26 -88 52 -176 26 -88 51 -173 55 -190
4 -16 24 -84 43 -150 33 -113 73 -248 239 -820 38 -132 82 -283 98 -335 15
-52 75 -260 134 -462 l106 -368 0 -1477 0 -1478 427 0 427 0 27 -90 c15 -49
48 -164 74 -255 25 -91 50 -168 54 -173 6 -6 114 23 441 123 162 50 510 155
578 174 l52 15 0 -445 0 -445 103 3 102 3 3 522 3 522 -77 83 c-178 192 -280
410 -314 668 -35 272 28 632 162 920 l40 85 -20 55 c-12 30 -69 170 -128 310
-58 140 -126 302 -149 360 -23 58 -68 166 -99 240 -146 344 -162 409 -153 595
10 210 83 378 231 534 90 94 131 109 192 72 25 -15 41 -43 84 -147 29 -71 81
-196 116 -279 34 -82 101 -244 148 -360 150 -363 176 -427 228 -550 28 -66
123 -295 212 -510 142 -341 165 -390 183 -388 11 1 52 17 90 35 l71 33 -149
355 -149 355 0 433 c0 253 4 432 9 432 5 0 42 -15 83 -34 40 -19 168 -75 283
-126 227 -99 277 -125 330 -171 39 -35 94 -115 121 -179 18 -44 19 -101 24
-1955 l5 -1910 93 -3 92 -3 0 1953 c0 1300 -4 1968 -11 1998 -22 97 -95 206
-175 261 -24 16 -118 63 -207 104 -206 93 -503 224 -587 259 l-65 27 0 1367 0
1367 -1230 0 c-676 1 -1308 -1 -1402 -2z m2433 -195 c3 -3 7 -2296 5 -2788
l-2 -335 -30 70 c-16 39 -72 171 -124 295 l-95 226 0 977 0 977 -140 0 c-136
0 -142 1 -165 25 -24 23 -25 29 -25 160 l0 135 -629 0 -630 0 -3 -145 c-2
-101 -7 -148 -16 -157 -9 -9 -59 -15 -165 -18 l-152 -5 -3 -2265 c-1 -1246 0
-2298 4 -2337 l6 -73 148 0 c122 0 151 -3 164 -16 13 -13 16 -43 16 -170 l0
-154 489 0 489 0 18 -52 c9 -29 30 -82 45 -117 16 -35 29 -65 29 -67 0 -2
-369 -4 -820 -4 l-820 0 0 2920 0 2920 1108 2 c1042 3 1292 2 1298 -4z m-783
-497 c10 -113 83 -228 172 -271 25 -12 75 -25 112 -28 l68 -7 3 -637 c1 -351
0 -638 -3 -638 -3 0 -21 15 -39 34 -58 57 -119 81 -211 81 -69 0 -89 -4 -139
-30 -69 -35 -175 -130 -230 -207 l-40 -54 -105 -1 c-125 -1 -178 -12 -278 -58
-169 -78 -292 -220 -355 -409 -31 -92 -30 -265 1 -366 28 -90 51 -138 102
-206 129 -175 338 -273 558 -262 53 3 102 7 110 9 10 3 37 -51 93 -186 44
-104 115 -276 159 -380 43 -105 79 -198 79 -206 0 -8 -16 -55 -36 -103 -50
-125 -101 -310 -126 -456 -21 -128 -30 -438 -14 -487 l7 -22 -263 -3 c-145 -2
-309 -2 -364 0 l-101 3 -5 74 c-11 165 -139 278 -294 260 l-54 -6 0 503 c0
869 0 3702 0 3729 0 26 2 27 74 31 56 4 85 11 119 31 92 54 146 144 154 260
l6 67 417 0 417 0 6 -59z m-1823 -963 c0 -494 -4 -886 -9 -878 -5 8 -34 103
-64 210 -31 107 -95 328 -142 490 -47 162 -108 374 -136 470 -27 96 -58 202
-68 235 -35 113 -65 225 -60 229 6 5 451 134 467 135 9 1 12 -184 12 -891z
m1378 -1110 c-14 -49 -22 -118 -25 -208 -6 -160 14 -278 73 -428 45 -116 43
-120 -62 -105 -154 22 -285 122 -336 256 -35 92 -33 230 4 309 34 73 77 127
136 169 53 38 153 78 198 78 l32 1 -20 -72z m612 -3483 c7 -8 7 -16 1 -19 -10
-6 -244 -78 -576 -176 -115 -34 -223 -66 -239 -71 -16 -5 -30 -8 -31 -7 -1 2
-20 65 -42 140 -26 89 -36 139 -29 142 6 2 212 4 458 5 363 0 449 -3 458 -14z"/>
<path d="M2660 6519 c-55 -16 -112 -60 -145 -114 -27 -44 -30 -57 -30 -130 0
-77 2 -85 34 -132 19 -27 55 -63 80 -79 41 -26 55 -29 126 -29 69 0 86 4 126
27 80 47 124 125 123 218 -2 92 -46 167 -128 215 -48 28 -134 39 -186 24z
m136 -170 c32 -30 40 -78 20 -117 -20 -39 -44 -52 -93 -52 -66 0 -113 68 -91
132 23 65 112 86 164 37z"/>
<path d="M2657 3246 c-131 -36 -206 -180 -165 -318 15 -51 82 -126 133 -149
24 -11 64 -19 98 -19 99 0 174 44 221 131 51 92 38 204 -32 281 -65 72 -161
100 -255 74z m132 -162 c38 -32 49 -80 27 -122 -30 -59 -102 -71 -155 -26 -25
21 -31 33 -31 66 0 49 13 73 48 92 40 22 77 19 111 -10z"/>
</g>
</svg>
