<?xml version="1.0" encoding="UTF-8"?>
<svg id="Livello_1" data-name="Livello 1" xmlns="http://www.w3.org/2000/svg" viewBox="0 0 3000 3000">
  <defs>
    <style>
      .cls-1 {
        fill: #1d1d1b;
      }
    </style>
  </defs>
  <g>
    <path class="cls-1" d="M2205.16,1563.83c-14.67,14.74-32.13,22.11-52.38,22.11-22.32,0-40.91-7.68-55.79-23.04-14.88-15.36-22.32-35.71-22.32-61.03s7.44-45.05,22.32-60.41c14.88-15.36,33.47-23.04,55.79-23.04,12.4,0,24.28,3.32,35.64,9.96,11.36,6.64,20.67,16.3,27.89,28.96,7.23,12.66,10.85,27.51,10.85,44.53,0,26.57-7.34,47.23-22,61.97M2229.02,1355.51v46.08c-8.27-16.61-20.76-29.48-37.5-38.61-16.74-9.14-36.47-13.71-59.2-13.71s-45.04,5.92-65.7,17.75c-20.66,11.83-37.4,29.27-50.21,52.31-12.81,23.04-19.22,50.55-19.22,82.52s6.41,59.58,19.22,82.83c12.81,23.25,29.55,40.79,50.21,52.63,20.66,11.83,42.56,17.75,65.7,17.75,2.73,0,5.35-.08,7.93-.21.19,0,.39-.02.58-.03,44-2.23,65.9-21.39,89.64-29.88,6.86-2.45,13.88-4.02,21.63-4.02,21.88,0,38.01,10.99,50.68,34.14v-299.56h-73.76Z"/>
    <path class="cls-1" d="M975.01,1477.55v171.32h-78.75v-158.86c0-24.5-5.38-42.36-16.12-53.58-10.75-11.21-24.39-16.82-40.92-16.82-19.02,0-34.41,7.16-46.2,21.49-11.78,14.33-17.67,32.92-17.67,55.76v152.01h-78.13v-424.88h78.13v173.81c9.51-14.95,22.12-26.68,37.82-35.2,15.71-8.52,33.07-12.77,52.08-12.77,31.83,0,58.08,10.8,78.75,32.39,20.67,21.6,31,53.37,31,95.32"/>
    <path class="cls-1" d="M1231.33,1501.91c0-24.5-7.34-44.65-22.01-60.43-14.67-15.78-33.38-23.67-56.12-23.67s-41.44,7.89-56.12,23.67c-14.68,15.78-22.01,35.93-22.01,60.43s7.34,45.17,22.01,60.74c14.68,15.58,33.38,23.36,56.12,23.36s41.44-7.79,56.12-23.36c14.67-15.57,22.01-35.82,22.01-60.74M1017.72,1579.78c-13.43-23.26-20.15-49.22-20.15-77.87s6.72-54.61,20.15-77.87c13.44-23.26,31.94-41.53,55.5-54.82,23.56-13.29,50.23-19.93,79.99-19.93s56.43,6.64,79.99,19.93c23.56,13.29,42.06,31.56,55.5,54.82,13.43,23.26,20.15,49.22,20.15,77.87s-6.72,54.61-20.15,77.87c-13.43,23.26-31.93,41.64-55.5,55.13-23.56,13.5-50.22,20.25-79.99,20.25s-56.43-6.75-79.99-20.25c-23.56-13.5-42.06-31.88-55.5-55.13"/>
    <rect class="cls-1" x="1331.4" y="1224" width="78.13" height="424.88"/>
    <path class="cls-1" d="M1440.02,1356.07h78.13v292.81h-78.13v-292.81ZM1429.48,1261.37c0-13.29,4.85-24.71,14.57-34.26,9.71-9.55,21.39-14.33,35.03-14.33s24.7,4.77,34.41,14.33c9.71,9.55,14.57,20.97,14.57,34.26s-4.86,24.61-14.57,33.95c-9.71,9.34-21.18,14.02-34.41,14.02s-25.32-4.67-35.03-14.02c-9.72-9.34-14.57-20.66-14.57-33.95"/>
    <path class="cls-1" d="M1626.15,1356.07v-19.31c0-33.64,17.57-50.46,52.71-50.46,2.89,0,8.89.42,17.98,1.24v-62.92c-15.71-3.32-29.56-4.98-41.54-4.98-32.24,0-58.19,10.18-77.82,30.53-19.64,20.35-29.46,50.05-29.46,89.09v309.63h78.13v-229.88h52.57v-62.92h-52.57Z"/>
    <path class="cls-1" d="M1896.5,1356.11v152.01c0,22.84-5.89,41.43-17.67,55.76-11.78,14.33-27.18,21.49-46.2,21.49-16.53,0-30.18-5.61-40.92-16.82-10.75-11.21-16.12-29.07-16.12-53.58v-158.86h-78.75v171.32c0,41.95,10.33,73.72,31,95.32,20.67,21.59,46.92,32.39,78.75,32.39,19.02,0,36.38-4.25,52.08-12.77,15.71-8.51,28.32-20.25,37.82-35.2v43.61c0,21.59-5.06,38.21-15.19,49.84-10.13,11.63-25.52,17.44-46.19,17.44-15.3,0-27.29-3.42-35.96-10.28-8.68-6.86-14.26-15.89-16.75-27.1h-78.75c4.13,31.15,17.15,56.69,39.06,76.63,21.91,19.93,53.12,29.9,93.63,29.9,44.64,0,78.85-12.87,102.62-38.63,23.77-25.75,35.65-61.47,35.65-107.15v-285.33h-78.13Z"/>
  </g>
  <g>
    <path class="cls-1" d="M705.17,1758.56c-5.3-5.53-7.95-12.93-7.95-22.2s2.69-16.44,8.06-22.2c5.38-5.61,12.39-8.41,21.03-8.41,7.24,0,13.16,1.91,17.76,5.72,4.44,3.74,7.28,8.92,8.53,15.54h-10.05c-1.87-8.49-7.32-12.74-16.36-12.74-5.61,0-10.24,2.07-13.9,6.19-3.51,4.13-5.26,9.43-5.26,15.89s1.75,11.72,5.26,15.78c3.58,4.05,8.22,6.08,13.9,6.08,8.8,0,14.22-4.17,16.24-12.5h10.17c-1.17,6.47-4.05,11.57-8.65,15.31-4.75,3.82-10.71,5.73-17.88,5.73-8.72,0-15.7-2.73-20.92-8.18Z"/>
    <path class="cls-1" d="M823.42,1766.04h-5.26c-7.09,0-10.67-3.08-10.75-9.23-4.52,6.62-11.18,9.93-19.98,9.93-6.7,0-12-1.56-15.89-4.68-4.05-3.11-6.08-7.36-6.08-12.74,0-12.38,7.98-18.58,23.96-18.58h17.53v-4.09c0-3.82-1.29-6.85-3.86-9.11-2.65-2.18-6.31-3.27-10.98-3.27-8.8,0-13.87,3.35-15.19,10.05h-9.58c.7-5.84,3.27-10.4,7.71-13.67,4.52-3.27,10.36-4.91,17.53-4.91,7.63,0,13.51,1.83,17.64,5.49,4.21,3.74,6.31,9.08,6.31,16.01v26.06c0,2.65,1.29,3.97,3.86,3.97h3.04v8.76ZM788.41,1738.81c-8.91,0-13.37,3.31-13.37,9.93,0,3.04,1.17,5.42,3.52,7.13,2.42,1.79,5.59,2.69,9.5,2.69,5.94,0,10.59-1.56,13.96-4.68,3.28-3.04,4.93-7.09,4.93-12.15v-2.92h-18.53Z"/>
    <path class="cls-1" d="M881.14,1715.79h-7.71c-6.31,0-11.06,2.18-14.26,6.54-2.49,3.58-3.74,8.1-3.74,13.55v21.38h17.41v8.76h-40.31v-8.76h13.32v-42.07h-13.32v-8.76h22.44l.35,10.05c3.9-6.7,10.36-10.05,19.4-10.05h6.43v9.35Z"/>
    <path class="cls-1" d="M902.06,1738.93c.16,5.76,1.91,10.4,5.26,13.9,3.35,3.58,7.87,5.38,13.55,5.38,9.19,0,14.84-4.05,16.94-12.15h9.7c-1.17,6-4.05,10.95-8.65,14.84-4.83,3.9-10.6,5.84-17.29,5.84-8.88,0-16.05-2.81-21.5-8.42-5.37-5.61-8.06-12.97-8.06-22.08s2.61-16.4,7.83-22.08c5.22-5.61,12.04-8.41,20.45-8.41s15.34,2.49,20.33,7.48c5.06,5.06,7.71,12,7.95,20.8,0,.55-.02,1.17-.06,1.87-.04.7-.1,1.52-.17,2.46h-46.27v.58ZM908.6,1718.56c-3.5,3.02-5.49,6.88-5.96,11.6h35.64c-.47-4.95-2.34-8.89-5.61-11.83-3.2-2.71-7.28-4.06-12.27-4.06-4.52,0-8.45,1.43-11.8,4.29Z"/>
    <path class="cls-1" d="M1058.64,1766.04h-5.26c-7.09,0-10.67-3.08-10.75-9.23-4.52,6.62-11.18,9.93-19.98,9.93-6.7,0-12-1.56-15.89-4.68-4.05-3.11-6.08-7.36-6.08-12.74,0-12.38,7.98-18.58,23.95-18.58h17.53v-4.09c0-3.82-1.28-6.85-3.86-9.11-2.65-2.18-6.31-3.27-10.98-3.27-8.8,0-13.87,3.35-15.19,10.05h-9.58c.7-5.84,3.27-10.4,7.71-13.67,4.52-3.27,10.36-4.91,17.53-4.91,7.63,0,13.52,1.83,17.64,5.49,4.21,3.74,6.31,9.08,6.31,16.01v26.06c0,2.65,1.28,3.97,3.86,3.97h3.04v8.76ZM1023.63,1738.81c-8.91,0-13.37,3.31-13.37,9.93,0,3.04,1.17,5.42,3.52,7.13,2.42,1.79,5.59,2.69,9.5,2.69,5.94,0,10.59-1.56,13.96-4.68,3.28-3.04,4.93-7.09,4.93-12.15v-2.92h-18.53Z"/>
    <path class="cls-1" d="M1084.11,1762.18c-2.34-2.41-3.51-6.31-3.51-11.69v-35.29h-15.78v-8.76h15.78v-16.71h9.58v16.71h20.92v8.76h-20.92v35.17c0,2.57.51,4.36,1.52,5.38,1.01,1.01,2.8,1.52,5.38,1.52h14.96v8.76h-15.89c-5.61,0-9.62-1.28-12.04-3.86Z"/>
    <path class="cls-1" d="M1207.97,1766.04h-45.69v-8.76h17.99v-42.07h-17.99v-8.76h27.58v50.83h18.11v8.76ZM1179.93,1693.94c-1.4-1.4-2.1-3.16-2.1-5.26s.7-3.74,2.1-5.14c1.48-1.4,3.23-2.1,5.26-2.1s3.74.7,5.14,2.1,2.1,3.12,2.1,5.14-.7,3.86-2.1,5.26c-1.33,1.4-3.04,2.1-5.14,2.1s-3.86-.7-5.26-2.1Z"/>
    <path class="cls-1" d="M1233.68,1762.18c-2.34-2.41-3.51-6.31-3.51-11.69v-35.29h-15.78v-8.76h15.78v-16.71h9.58v16.71h20.92v8.76h-20.92v35.17c0,2.57.51,4.36,1.52,5.38,1.01,1.01,2.8,1.52,5.38,1.52h14.96v8.76h-15.89c-5.61,0-9.62-1.28-12.04-3.86Z"/>
    <path class="cls-1" d="M1279.6,1761.48c-4.83-3.58-7.32-8.61-7.48-15.07h9.82c.08,3.5,1.64,6.39,4.67,8.65,2.88,2.34,6.82,3.51,11.8,3.51,4.21,0,7.67-.82,10.4-2.46,2.65-1.71,3.97-3.93,3.97-6.66,0-3.43-1.44-5.76-4.32-7.01-1.71-.7-5.42-1.4-11.1-2.1-7.95-.94-13.6-2.38-16.94-4.32-4.67-2.65-7.01-6.78-7.01-12.39s2.25-9.7,6.74-12.97c4.31-3.27,9.89-4.91,16.74-4.91s12.58,1.6,16.94,4.79c4.44,3.27,6.89,7.94,7.36,14.02h-9.82c-.31-3.04-1.79-5.57-4.44-7.6-2.73-2.02-6.08-3.04-10.05-3.04-4.28,0-7.64.82-10.05,2.45-2.57,1.64-3.86,3.82-3.86,6.54,0,2.96,1.4,5.06,4.21,6.31,1.71.78,5.3,1.48,10.75,2.1,8.26,1.09,14.02,2.53,17.29,4.32,4.75,2.65,7.13,7.01,7.13,13.09,0,5.45-2.37,9.86-7.1,13.2-4.54,3.2-10.16,4.79-16.86,4.79-7.87,0-14.14-1.75-18.81-5.26Z"/>
    <path class="cls-1" d="M1381.38,1758.56c-5.3-5.53-7.94-12.93-7.94-22.2s2.69-16.44,8.06-22.2c5.38-5.61,12.39-8.41,21.03-8.41,7.24,0,13.16,1.91,17.76,5.72,4.44,3.74,7.28,8.92,8.53,15.54h-10.05c-1.87-8.49-7.32-12.74-16.36-12.74-5.61,0-10.25,2.07-13.91,6.19-3.5,4.13-5.26,9.43-5.26,15.89s1.75,11.72,5.26,15.78c3.58,4.05,8.22,6.08,13.91,6.08,8.8,0,14.22-4.17,16.24-12.5h10.17c-1.17,6.47-4.05,11.57-8.65,15.31-4.75,3.82-10.71,5.73-17.88,5.73-8.73,0-15.7-2.73-20.92-8.18Z"/>
    <path class="cls-1" d="M1448.92,1758.32c-5.53-5.76-8.3-13.12-8.3-22.08s2.76-16.32,8.3-22.08c5.45-5.61,12.54-8.41,21.27-8.41s15.74,2.8,21.27,8.41c5.53,5.77,8.3,13.13,8.3,22.08s-2.77,16.32-8.3,22.08c-5.53,5.61-12.62,8.42-21.27,8.42s-15.82-2.81-21.27-8.42ZM1484.44,1752.01c3.66-4.13,5.49-9.39,5.49-15.78s-1.83-11.64-5.49-15.78c-3.66-4.13-8.41-6.19-14.26-6.19s-10.6,2.07-14.26,6.19c-3.66,4.13-5.49,9.39-5.49,15.78s1.83,11.65,5.49,15.78c3.66,4.13,8.41,6.19,14.26,6.19s10.59-2.06,14.26-6.19Z"/>
    <path class="cls-1" d="M1559.81,1715.79h-7.71c-6.31,0-11.06,2.18-14.26,6.54-2.49,3.58-3.74,8.1-3.74,13.55v21.38h17.41v8.76h-40.31v-8.76h13.32v-42.07h-13.32v-8.76h22.44l.35,10.05c3.89-6.7,10.36-10.05,19.4-10.05h6.43v9.35Z"/>
    <path class="cls-1" d="M1580.73,1738.93c.16,5.76,1.91,10.4,5.26,13.9,3.35,3.58,7.87,5.38,13.56,5.38,9.19,0,14.84-4.05,16.94-12.15h9.7c-1.17,6-4.05,10.95-8.65,14.84-4.83,3.9-10.6,5.84-17.3,5.84-8.88,0-16.05-2.81-21.5-8.42-5.38-5.61-8.06-12.97-8.06-22.08s2.61-16.4,7.83-22.08c5.22-5.61,12.04-8.41,20.45-8.41s15.35,2.49,20.33,7.48c5.06,5.06,7.71,12,7.94,20.8,0,.55-.02,1.17-.06,1.87-.04.7-.1,1.52-.18,2.46h-46.27v.58ZM1587.27,1718.56c-3.51,3.02-5.49,6.88-5.96,11.6h35.64c-.47-4.95-2.34-8.89-5.61-11.83-3.2-2.71-7.29-4.06-12.27-4.06-4.52,0-8.45,1.43-11.8,4.29Z"/>
    <path class="cls-1" d="M1644.76,1764.75c-1.32-1.32-1.99-3-1.99-5.03s.66-3.82,1.99-5.14c1.48-1.32,3.19-1.99,5.14-1.99,2.1,0,3.82.66,5.14,1.99,1.4,1.32,2.1,3.04,2.1,5.14s-.7,3.78-2.1,5.03c-1.33,1.32-3.04,1.99-5.14,1.99s-3.82-.66-5.14-1.99Z"/>
  </g>
</svg>